<svg xmlns="http://www.w3.org/2000/svg" viewBox="0 0 56 56"><g transform="translate(3 3)"><circle cx="25" cy="25" r="25" fill="#38a161"/><path d="M25 51C10.7 51-1 39.3-1 25S10.7-1 25-1s26 11.7 26 26-11.7 26-26 26zm0-50C11.8 1 1 11.8 1 25s10.8 24 24 24 24-10.8 24-24S38.2 1 25 1z"/></g><path d="M19.9 24.2c-1.7.1-2.2-2.6-1.7-4.4.1-.3.7-1.9 1.7-1.9s1.5.8 1.5 1c.7 1.8.4 5.2-1.5 5.3M37.8 19.9c-.1-.3-.7-1.9-1.7-1.9s-1.5.8-1.5 1c-.7 1.7-.4 5.1 1.5 5.3 1.7.1 2.2-2.6 1.7-4.4zM36.7 34.7l-.4.8c-.4.7-.9 1.3-1.4 1.9-1.7 1.8-3.9 2.9-6.8 2.8-2.8-.1-5-1.1-6.7-2.8-.6-.6-1.2-1.3-1.6-1.9-.2-.4-.4-.7-.5-.8-.2-.4-.6-.5-.9-.3-.3.2-.5.6-.3 1 .1.2.3.6.6 1 .5.8 1.1 1.5 1.8 2.2 2 1.9 4.5 3.1 7.6 3.2 3.2.1 5.8-1.1 7.8-3.2.7-.7 1.2-1.5 1.6-2.2.3-.5.4-.8.5-1 .1-.4 0-.8-.3-1-.4-.3-.8-.1-1 .3z"/></svg>