<svg xmlns="http://www.w3.org/2000/svg" viewBox="0 0 56 56"><g transform="translate(3 3)"><circle cx="25" cy="25" r="25" fill="#ffbd66"/><path d="M25 51C10.7 51-1 39.3-1 25S10.7-1 25-1s26 11.7 26 26-11.7 26-26 26zm0-50C11.8 1 1 11.8 1 25s10.8 24 24 24 24-10.8 24-24S38.2 1 25 1z"/></g><path d="M34.5 40c.4.1.6.4.5.8-.1.4-.4.6-.8.5-2.2-.5-4.3-.7-6.5-.7s-4.3.2-6.5.7c-.4.1-.7-.2-.8-.5-.1-.4.1-.7.5-.8 2.3-.5 4.5-.8 6.8-.8s4.6.3 6.8.8zM20 24.9c-2 .1-2.6-2.1-2-3.5.1-.3.8-1.5 1.9-1.5 1.2 0 1.7.7 1.8.8.9 1.4.4 4.1-1.7 4.2"/><g><path d="M37.9 21.4c-.1-.3-.8-1.5-1.9-1.5-1.2 0-1.7.7-1.8.8-.9 1.4-.4 4.1 1.7 4.2 2.1.1 2.6-2.1 2-3.5z"/></g></svg>