<svg xmlns="http://www.w3.org/2000/svg" viewBox="0 0 56 56"><g transform="translate(3 3)"><circle cx="25" cy="25" r="25" fill="#ffd7a3"/><path d="M25 51C10.7 51-1 39.3-1 25S10.7-1 25-1s26 11.7 26 26-11.7 26-26 26zm0-50C11.8 1 1 11.8 1 25s10.8 24 24 24 24-10.8 24-24S38.2 1 25 1z"/></g><path d="M19.95 24.9c-2 .1-2.5-2.9-1.9-4.8.1-.4.7-2.1 1.9-2.1s1.7.9 1.8 1.1c.8 1.9.4 5.6-1.8 5.8M37.95 20.1c-.1-.4-.8-2.1-2-2.1s-1.7.9-1.8 1.1c-.8 1.9-.4 5.6 1.8 5.8 2 .1 2.6-2.9 2-4.8z"/><g><path d="M23.2 41.5c-.2-.3-.2-.7.1-.9s.7-.2.9.1c.1.1.2.2.6.4.6.3 1.4.5 2.4.5h2.6c.3 0 .6.3.6.6s-.3.6-.6.6h-2.6c-1.2 0-2.2-.2-3-.6-.6-.2-.9-.5-1-.7z"/></g></svg>