<svg xmlns="http://www.w3.org/2000/svg" viewBox="0 0 56 56"><g transform="translate(3 3)"><circle cx="25" cy="25" r="25" fill="#d6897d"/><path d="M25 51C10.7 51-1 39.3-1 25S10.7-1 25-1s26 11.7 26 26-11.7 26-26 26zm0-50C11.8 1 1 11.8 1 25s10.8 24 24 24 24-10.8 24-24S38.2 1 25 1z"/></g><path d="M20 24.9c-2 .1-2.6-2.1-2-3.5.1-.3.8-1.5 1.9-1.5 1.2 0 1.7.7 1.8.8.9 1.4.4 4.1-1.7 4.2M37.9 21.4c-.1-.3-.8-1.5-1.9-1.5-1.2 0-1.7.7-1.8.8-.9 1.4-.4 4.1 1.7 4.2 2.1.1 2.6-2.1 2-3.5zM18.5 41.7c.1-.1.2-.4.4-.8.4-.6.9-1.2 1.5-1.8 1.8-1.7 4.1-2.7 7-2.6 2.8.1 5.1 1.1 6.9 2.7.7.6 1.2 1.2 1.6 1.8.3.4.4.6.5.8.2.3.6.5.9.3s.5-.6.3-.9c-.1-.2-.3-.6-.6-1-.5-.7-1.1-1.4-1.9-2.1-2-1.8-4.6-2.9-7.8-3-3.3-.1-6 1-8 3-.7.7-1.2 1.4-1.7 2.1-.3.4-.4.8-.5 1-.2.4 0 .8.4.9s.9 0 1-.4z"/></svg>